<svg width="64" height="64" viewBox="0 0 64 64" fill="none" xmlns="http://www.w3.org/2000/svg">
<rect x="14.519" y="6.81583" width="34.963" height="50.3704" rx="2.66667" stroke="#141414" stroke-width="0.592593"/>
<rect x="17.4818" y="9.18497" width="29.037" height="27.2593" rx="2.66667" stroke="#141414" stroke-width="0.592593"/>
<rect x="18.3701" y="56.8887" width="4.74074" height="1.77778" rx="0.592593" fill="#141414"/>
<rect x="40.8887" y="56.8887" width="4.74074" height="1.77778" rx="0.592593" fill="#141414"/>
<rect x="19.852" y="13.9252" width="24.2963" height="2.96296" stroke="#141414" stroke-width="0.592593"/>
<rect x="21.0365" y="15.1107" width="21.9259" height="0.592593" stroke="#141414" stroke-width="0.592593"/>
<path d="M25.7777 42.0747C25.7777 41.2565 26.441 40.5932 27.2592 40.5932H36.7407C37.5589 40.5932 38.2222 41.2565 38.2222 42.0747V57.1858H25.7777V42.0747Z" fill="#141414" stroke="#141414" stroke-width="0.592593"/>
<rect x="19.852" y="28.7416" width="12.4444" height="2.96296" stroke="#141414" stroke-width="0.592593"/>
<rect x="40.2959" y="18.9629" width="4.14815" height="1.18519" rx="0.592593" fill="#141414"/>
<rect x="33.7773" y="18.9629" width="4.14815" height="1.18519" rx="0.592593" fill="#141414"/>
<rect x="20.7402" y="29.6289" width="6.51852" height="1.18519" fill="#141414"/>
<rect x="28.4443" y="29.6289" width="2.96296" height="1.18519" fill="#141414"/>
<circle cx="36.1479" cy="30.2231" r="1.77778" fill="#141414"/>
<circle cx="40.593" cy="31.1115" r="0.888889" fill="#141414"/>
<circle cx="43.5559" cy="31.1115" r="0.888889" fill="#141414"/>
</svg>
