<svg width="41" height="52" viewBox="0 0 41 52" fill="none" xmlns="http://www.w3.org/2000/svg">
<g clip-path="url(#clip0_2315_236)">
<rect x="1.07908" y="0.747045" width="39.5873" height="39.5873" rx="1.13757" stroke="#141414" stroke-width="0.455027"/>
<circle cx="21.1002" cy="20.3131" r="12.6757" stroke="#141414" stroke-width="0.845049"/>
<circle cx="21.0999" cy="20.3138" r="15.6006" fill="#FAFAFA" stroke="#141414" stroke-width="1.62444"/>
<path fill-rule="evenodd" clip-rule="evenodd" d="M23.6627 12.8091L23.0411 16.2832C23.6214 16.5104 24.1476 16.8393 24.596 17.2469C25.257 16.6455 26.0775 14.8057 26.4297 13.8913C28.4867 14.3039 29.996 18.1562 29.5117 19.3062L26.1675 20.5404C26.1712 20.6162 26.173 20.6925 26.173 20.7692C26.173 21.2307 26.106 21.6771 25.9809 22.0998C26.9186 22.281 28.6401 22.1038 29.5117 21.9691C30.1879 23.9824 27.6536 27.2345 26.4297 27.3841L23.6153 24.988C23.2446 25.1895 22.8446 25.347 22.423 25.4529L22.6255 25.4957C22.6255 26.2349 23.8748 27.9598 24.4994 28.7299C23.1877 30.2083 19.3462 29.6539 18.6435 28.7299L19.2653 25.2548C18.6385 25.0092 18.0748 24.6451 17.6041 24.1912C16.9637 24.8788 16.2099 26.5754 15.8762 27.4416C13.8193 27.029 12.3099 23.1766 12.7942 22.0266L16.1343 20.794L16.1343 20.7692C16.1343 20.3701 16.1844 19.9823 16.2788 19.6113C15.3318 19.4444 13.6519 19.6181 12.7944 19.7505C12.1182 17.7372 14.6525 14.4852 15.8765 14.3356L18.5631 16.623C18.969 16.3867 19.4124 16.2043 19.8826 16.0859L19.6807 16.0433C19.6807 15.304 18.4314 13.5791 17.8068 12.8091C19.1185 11.3306 22.96 11.8851 23.6627 12.8091Z" fill="#141414"/>
<path d="M23.0411 16.2832L22.8171 16.2432L22.7842 16.427L22.9581 16.4951L23.0411 16.2832ZM23.6627 12.8091L23.8867 12.8492L23.9043 12.7509L23.8438 12.6714L23.6627 12.8091ZM24.596 17.2469L24.4429 17.4152L24.596 17.5544L24.7491 17.4152L24.596 17.2469ZM26.4297 13.8913L26.4744 13.6682L26.2863 13.6305L26.2174 13.8095L26.4297 13.8913ZM29.5117 19.3062L29.5905 19.5197L29.6831 19.4855L29.7214 19.3945L29.5117 19.3062ZM26.1675 20.5404L26.0887 20.327L25.9322 20.3847L25.9403 20.5514L26.1675 20.5404ZM25.9809 22.0998L25.7628 22.0353L25.6916 22.2757L25.9378 22.3232L25.9809 22.0998ZM29.5117 21.9691L29.7274 21.8967L29.6663 21.715L29.477 21.7443L29.5117 21.9691ZM26.4297 27.3841L26.2822 27.5573L26.3582 27.6221L26.4573 27.6099L26.4297 27.3841ZM23.6153 24.988L23.7628 24.8147L23.6439 24.7135L23.5066 24.7881L23.6153 24.988ZM22.423 25.4529L22.3676 25.2322L22.376 25.6755L22.423 25.4529ZM22.6255 25.4957H22.853V25.3112L22.6726 25.2731L22.6255 25.4957ZM24.4994 28.7299L24.6696 28.8809L24.7977 28.7365L24.6761 28.5865L24.4994 28.7299ZM18.6435 28.7299L18.4195 28.6898L18.4019 28.7881L18.4624 28.8676L18.6435 28.7299ZM19.2653 25.2548L19.4892 25.2949L19.5221 25.1111L19.3483 25.043L19.2653 25.2548ZM17.6041 24.1912L17.7621 24.0274L17.5954 23.8667L17.4376 24.0361L17.6041 24.1912ZM15.8762 27.4416L15.8315 27.6647L16.0196 27.7024L16.0885 27.5234L15.8762 27.4416ZM12.7942 22.0266L12.7154 21.8132L12.6228 21.8474L12.5845 21.9383L12.7942 22.0266ZM16.1343 20.794L16.2131 21.0074L16.3623 20.9524L16.3619 20.7934L16.1343 20.794ZM16.1343 20.7692H15.9068L15.9068 20.7698L16.1343 20.7692ZM16.2788 19.6113L16.4993 19.6674L16.5598 19.4298L16.3183 19.3872L16.2788 19.6113ZM12.7944 19.7505L12.5788 19.823L12.6398 20.0046L12.8292 19.9754L12.7944 19.7505ZM15.8765 14.3356L16.024 14.1623L15.948 14.0976L15.8489 14.1097L15.8765 14.3356ZM18.5631 16.623L18.4156 16.7962L18.5383 16.9007L18.6776 16.8196L18.5631 16.623ZM19.8826 16.0859L19.9381 16.3066L19.9296 15.8633L19.8826 16.0859ZM19.6807 16.0433H19.4532V16.2277L19.6337 16.2659L19.6807 16.0433ZM17.8068 12.8091L17.6366 12.6581L17.5085 12.8025L17.6301 12.9524L17.8068 12.8091ZM23.265 16.3233L23.8867 12.8492L23.4388 12.769L22.8171 16.2432L23.265 16.3233ZM24.749 17.0785C24.2802 16.6523 23.7302 16.3087 23.124 16.0714L22.9581 16.4951C23.5125 16.7122 24.015 17.0262 24.4429 17.4152L24.749 17.0785ZM26.2174 13.8095C26.0436 14.2608 25.7536 14.9419 25.426 15.583C25.0933 16.2342 24.7391 16.8091 24.4429 17.0786L24.7491 17.4152C25.1139 17.0833 25.5004 16.4376 25.8313 15.79C26.1673 15.1322 26.4636 14.4362 26.642 13.973L26.2174 13.8095ZM29.7214 19.3945C29.8701 19.0415 29.8544 18.528 29.7468 17.9885C29.637 17.4374 29.4223 16.8162 29.1275 16.2212C28.8329 15.6265 28.4539 15.0494 28.0106 14.5915C27.5686 14.1349 27.0496 13.7836 26.4744 13.6682L26.385 14.1143C26.8383 14.2053 27.2793 14.4902 27.6837 14.9079C28.0868 15.3243 28.4406 15.8596 28.7198 16.4232C28.999 16.9866 29.1994 17.57 29.3006 18.0775C29.4041 18.5967 29.3955 18.996 29.3021 19.2179L29.7214 19.3945ZM26.2463 20.7538L29.5905 19.5197L29.433 19.0928L26.0887 20.327L26.2463 20.7538ZM26.4005 20.7692C26.4005 20.6888 26.3986 20.6089 26.3948 20.5294L25.9403 20.5514C25.9438 20.6235 25.9455 20.6962 25.9455 20.7692H26.4005ZM26.1991 22.1644C26.3303 21.7209 26.4005 21.2528 26.4005 20.7692H25.9455C25.9455 21.2085 25.8818 21.6332 25.7628 22.0353L26.1991 22.1644ZM25.9378 22.3232C26.4361 22.4195 27.1248 22.4187 27.7844 22.38C28.449 22.3411 29.1045 22.2622 29.5464 22.194L29.477 21.7443C29.0473 21.8107 28.4062 21.8878 27.7578 21.9258C27.1043 21.9641 26.4634 21.9613 26.0241 21.8765L25.9378 22.3232ZM29.296 22.0416C29.4458 22.4875 29.4226 23.019 29.2681 23.5835C29.114 24.1462 28.8338 24.7247 28.4923 25.2518C28.1509 25.7787 27.7532 26.2462 27.3709 26.5885C26.9793 26.9391 26.6356 27.1297 26.4021 27.1583L26.4573 27.6099C26.8357 27.5637 27.2677 27.2917 27.6744 26.9275C28.0904 26.5551 28.5135 26.0557 28.8742 25.4992C29.2347 24.9429 29.5378 24.3216 29.707 23.7036C29.8757 23.0874 29.9157 22.4574 29.7274 21.8967L29.296 22.0416ZM26.5771 27.2109L23.7628 24.8147L23.4678 25.1612L26.2822 27.5573L26.5771 27.2109ZM22.4784 25.6736C22.9187 25.5629 23.3366 25.3985 23.724 25.1879L23.5066 24.7881C23.1525 24.9806 22.7704 25.131 22.3676 25.2322L22.4784 25.6736ZM22.6726 25.2731L22.47 25.2303L22.376 25.6755L22.5785 25.7183L22.6726 25.2731ZM24.6761 28.5865C24.368 28.2067 23.9052 27.5904 23.5207 26.98C23.3284 26.6746 23.1585 26.3751 23.0374 26.1101C22.913 25.8377 22.853 25.6289 22.853 25.4957H22.398C22.398 25.7321 22.4942 26.0161 22.6235 26.2992C22.7562 26.5896 22.9376 26.908 23.1357 27.2225C23.5321 27.8518 24.0062 28.483 24.3227 28.8732L24.6761 28.5865ZM18.4624 28.8676C18.6816 29.1559 19.1099 29.3816 19.5989 29.5436C20.0995 29.7094 20.7065 29.8223 21.3301 29.8579C21.9534 29.8936 22.6027 29.8526 23.186 29.704C23.7675 29.5559 24.301 29.2963 24.6696 28.8809L24.3292 28.5789C24.042 28.9026 23.6034 29.1281 23.0737 29.2631C22.5459 29.3975 21.9449 29.4373 21.3561 29.4036C20.7674 29.37 20.2003 29.2634 19.742 29.1116C19.2721 28.956 18.9567 28.7658 18.8246 28.5921L18.4624 28.8676ZM19.0413 25.2147L18.4195 28.6898L18.8674 28.7699L19.4892 25.2949L19.0413 25.2147ZM17.4462 24.3549C17.9384 24.8296 18.5275 25.2101 19.1823 25.4666L19.3483 25.043C18.7494 24.8084 18.2112 24.4605 17.7621 24.0274L17.4462 24.3549ZM16.0885 27.5234C16.2531 27.096 16.5221 26.4622 16.8285 25.8515C17.138 25.2344 17.4744 24.6642 17.7706 24.3462L17.4376 24.0361C17.0934 24.4058 16.7327 25.0277 16.4218 25.6474C16.1077 26.2734 15.833 26.921 15.6639 27.3598L16.0885 27.5234ZM12.5845 21.9383C12.4358 22.2914 12.4515 22.8049 12.5591 23.3443C12.669 23.8955 12.8836 24.5166 13.1784 25.1116C13.4731 25.7064 13.852 26.2835 14.2953 26.7414C14.7373 27.198 15.2563 27.5493 15.8315 27.6647L15.921 27.2185C15.4676 27.1276 15.0266 26.8427 14.6222 26.4249C14.2192 26.0086 13.8654 25.4733 13.5861 24.9096C13.307 24.3462 13.1065 23.7629 13.0053 23.2554C12.9018 22.7362 12.9104 22.3369 13.0039 22.1149L12.5845 21.9383ZM16.0556 20.5805L12.7154 21.8132L12.873 22.2401L16.2131 21.0074L16.0556 20.5805ZM15.9068 20.7698L15.9068 20.7946L16.3619 20.7934L16.3618 20.7686L15.9068 20.7698ZM16.0584 19.5551C15.9593 19.9443 15.9068 20.351 15.9068 20.7692H16.3618C16.3618 20.3892 16.4095 20.0203 16.4993 19.6674L16.0584 19.5551ZM12.8292 19.9754C13.2518 19.9101 13.8791 19.8344 14.5168 19.7958C15.1588 19.7569 15.7934 19.7568 16.2394 19.8353L16.3183 19.3872C15.8172 19.2989 15.1383 19.3022 14.4893 19.3416C13.8358 19.3812 13.1944 19.4585 12.7597 19.5257L12.8292 19.9754ZM15.8489 14.1097C15.4705 14.156 15.0384 14.428 14.6317 14.7922C14.2158 15.1646 13.7926 15.6639 13.432 16.2204C13.0714 16.7768 12.7684 17.3981 12.5992 18.0161C12.4305 18.6323 12.3904 19.2623 12.5788 19.823L13.0101 19.6781C12.8603 19.2322 12.8835 18.7006 13.038 18.1362C13.1921 17.5735 13.4723 16.9949 13.8138 16.4679C14.1552 15.941 14.5529 15.4735 14.9352 15.1311C15.3268 14.7806 15.6705 14.5899 15.9041 14.5614L15.8489 14.1097ZM18.7106 16.4497L16.024 14.1623L15.729 14.5088L18.4156 16.7962L18.7106 16.4497ZM19.8271 15.8653C19.336 15.9889 18.8728 16.1794 18.4486 16.4263L18.6776 16.8196C19.0652 16.5939 19.4887 16.4196 19.9381 16.3066L19.8271 15.8653ZM19.6337 16.2659L19.8356 16.3085L19.9296 15.8633L19.7277 15.8207L19.6337 16.2659ZM17.6301 12.9524C17.9382 13.3323 18.401 13.9486 18.7855 14.559C18.9778 14.8644 19.1477 15.1639 19.2688 15.4289C19.3932 15.7013 19.4532 15.9101 19.4532 16.0433H19.9082C19.9082 15.8068 19.812 15.5228 19.6827 15.2398C19.55 14.9494 19.3686 14.631 19.1705 14.3165C18.7741 13.6871 18.3 13.056 17.9835 12.6658L17.6301 12.9524ZM23.8438 12.6714C23.6246 12.3831 23.1963 12.1574 22.7073 11.9954C22.2067 11.8296 21.5997 11.7167 20.9761 11.681C20.3528 11.6454 19.7035 11.6864 19.1202 11.835C18.5388 11.983 18.0052 12.2427 17.6366 12.6581L17.977 12.9601C18.2643 12.6363 18.7028 12.4108 19.2325 12.2759C19.7604 12.1415 20.3613 12.1017 20.9502 12.1353C21.5388 12.169 22.1059 12.2755 22.5642 12.4274C23.0341 12.583 23.3495 12.7731 23.4816 12.9468L23.8438 12.6714Z" fill="#141414"/>
<circle cx="21.0994" cy="20.7683" r="2.04762" fill="#FAFAFA"/>
<rect x="11.7725" y="40.5625" width="2.27513" height="5.46032" fill="#141414"/>
<rect x="27.6982" y="40.5625" width="2.27513" height="5.46032" fill="#141414"/>
<rect x="7.22168" y="46.0215" width="27.3016" height="5.46032" rx="1.36508" fill="#141414"/>
<path d="M3.12695 40.5625V47.8429C3.12695 48.3455 3.5344 48.753 4.03701 48.753H7.67722" stroke="#141414" stroke-width="1.36508"/>
<path d="M38.6191 40.5625V47.8429C38.6191 48.3455 38.2117 48.753 37.7091 48.753H34.0689" stroke="#141414" stroke-width="1.36508"/>
</g>
<defs>
<clipPath id="clip0_2315_236">
<rect width="40.0423" height="50.963" fill="white" transform="translate(0.851562 0.519531)"/>
</clipPath>
</defs>
</svg>
