<svg width="52" height="52" viewBox="0 0 52 52" fill="none" xmlns="http://www.w3.org/2000/svg">
<g clip-path="url(#clip0_2315_172)">
<rect x="3.54418" y="4.81957" width="44.9111" height="44.9111" rx="3.66296" stroke="#141414" stroke-width="0.955556"/>
<path d="M5.45434 9.43714C5.45434 7.94188 6.66649 6.72973 8.16175 6.72973H43.8358C45.3311 6.72973 46.5432 7.94188 46.5432 9.43714V45.1112C46.5432 46.6065 45.3311 47.8186 43.8358 47.8186H8.16175C6.66649 47.8186 5.45434 46.6065 5.45434 45.1112V9.43714Z" fill="#FAFAFA" stroke="#141414" stroke-width="0.955556"/>
<rect x="24.71" y="1.50692" width="14.1831" height="3.41048" rx="0.477778" fill="#141414" stroke="#141414" stroke-width="0.318519"/>
<rect x="11.0391" y="0.678791" width="2.58181" height="4.23914" rx="0.159259" fill="#141414" stroke="#141414" stroke-width="0.318519"/>
<rect x="16.835" y="0.678791" width="1.75315" height="4.23914" rx="0.159259" fill="#141414" stroke="#141414" stroke-width="0.318519"/>
<path d="M13.3799 38.1086H9.06395C8.53621 38.1086 8.1084 37.6808 8.1084 37.1531V11.7525C8.1084 11.2247 8.53622 10.7969 9.06395 10.7969H21.37C21.8977 10.7969 22.3256 10.3691 22.3256 9.84135V9.78759C22.3256 9.25985 22.7534 8.83203 23.2811 8.83203H26.6415C27.1693 8.83203 27.5971 9.25985 27.5971 9.78759V9.84135C27.5971 10.3691 28.0249 10.7969 28.5526 10.7969H42.9353C43.4631 10.7969 43.8909 11.2247 43.8909 11.7525V12.0027C43.8909 12.5304 43.4631 12.9583 42.9353 12.9583H42.7698C42.2421 12.9583 41.8142 13.3861 41.8142 13.9138V14.557C41.8142 15.0848 42.2421 15.5126 42.7698 15.5126H42.9353C43.4631 15.5126 43.8909 15.9404 43.8909 16.4682V37.1531C43.8909 37.6808 43.4631 38.1086 42.9353 38.1086H41.8142" stroke="#141414" stroke-width="0.361439"/>
<rect x="43.1992" y="23.4531" width="1.27407" height="1.27407" fill="#FAFAFA"/>
<rect x="43.1992" y="27.2754" width="1.27407" height="2.54815" fill="#FAFAFA"/>
<rect x="43.1992" y="31.0977" width="1.27407" height="2.54815" fill="#FAFAFA"/>
<path d="M15.3379 44.6152H36.3014" stroke="#141414" stroke-width="0.361439"/>
<rect x="26.5439" y="43.8926" width="1.08432" height="1.44576" fill="#FAFAFA"/>
<rect x="28.3496" y="43.8926" width="2.53008" height="1.44576" fill="#FAFAFA"/>
<rect x="31.6045" y="43.8926" width="2.53008" height="1.44576" fill="#FAFAFA"/>
<rect x="22.0254" y="12.628" width="5.78303" height="13.7347" rx="0.774836" stroke="#141414" stroke-width="0.361439"/>
<rect x="30.336" y="28.8917" width="10.7867" height="2.18671" rx="0.774836" stroke="#141414" stroke-width="0.361439"/>
<rect x="15.8799" y="41.542" width="20.2406" height="1.08432" rx="0.542159" stroke="#141414" stroke-width="0.361439"/>
<rect x="15.8799" y="39.0147" width="20.2406" height="1.08432" rx="0.542159" stroke="#141414" stroke-width="0.361439"/>
<rect x="30.336" y="32.3956" width="10.7867" height="2.18671" rx="0.774836" stroke="#141414" stroke-width="0.361439"/>
<rect x="18.0489" y="12.628" width="1.8072" height="21.6864" rx="0.774836" stroke="#141414" stroke-width="0.361439"/>
<rect x="14.0723" y="12.628" width="2.16864" height="21.6864" rx="0.774836" stroke="#141414" stroke-width="0.361439"/>
<rect x="10.4581" y="12.628" width="1.8072" height="21.6864" rx="0.774836" stroke="#141414" stroke-width="0.361439"/>
<circle cx="24.9152" cy="33.59" r="3.62747" fill="#141414" stroke="#141414" stroke-width="0.335283"/>
<ellipse cx="24.9835" cy="33.5452" rx="1.3478" ry="1.45148" fill="#FAFAFA"/>
<path d="M25.8359 31.1709L25.6231 32.4696L24.63 32.2405C24.63 31.996 24.2517 31.4256 24.0625 31.1709C24.4597 30.682 25.6231 30.8654 25.8359 31.1709Z" fill="#FAFAFA"/>
<path d="M24.2012 35.9873L24.414 34.6886L25.4071 34.9177C25.4071 35.1622 25.7854 35.7326 25.9746 35.9873C25.5774 36.4762 24.414 36.2928 24.2012 35.9873Z" fill="#FAFAFA"/>
<path d="M23.4878 31.4794L24.4258 32.3272L23.7449 33.1388C23.5483 33.0166 22.9005 33.0842 22.6011 33.1333C22.4065 32.5184 23.1357 31.525 23.4878 31.4794Z" fill="#FAFAFA"/>
<path d="M27.4126 33.133L26.2618 33.5839L25.9495 32.5431C26.1461 32.4208 26.4157 31.7828 26.5259 31.479C27.1177 31.6051 27.5519 32.7817 27.4126 33.133Z" fill="#FAFAFA"/>
<path d="M22.6011 33.9627L23.7519 33.5118L24.0641 34.5526C23.8676 34.6749 23.598 35.3129 23.4878 35.6167C22.896 35.4906 22.4618 34.314 22.6011 33.9627Z" fill="#FAFAFA"/>
<path d="M26.5259 35.464L25.5879 34.6162L26.2688 33.8045C26.4653 33.9268 27.1132 33.8591 27.4126 33.81C27.6071 34.425 26.878 35.4183 26.5259 35.464Z" fill="#FAFAFA"/>
<rect x="12.0859" y="14.6172" width="0.722879" height="6.86735" fill="#FAFAFA"/>
<rect x="13.5303" y="25.0977" width="1.08432" height="6.86735" fill="#FAFAFA"/>
<rect x="19.3145" y="14.6172" width="1.08432" height="6.86735" fill="#FAFAFA"/>
<rect x="26.6367" y="23.1348" width="2.54815" height="2.54815" fill="#FAFAFA"/>
<rect x="21.2227" y="19.3125" width="2.54815" height="5.41481" fill="#FAFAFA"/>
<rect x="17.5068" y="39.916" width="1.44576" height="2.89152" fill="#FAFAFA"/>
<rect x="26.9053" y="42.4453" width="1.08432" height="1.44576" fill="#FAFAFA"/>
<rect x="31.9629" y="42.4453" width="2.53008" height="1.44576" fill="#FAFAFA"/>
<rect x="31.9657" y="16.4238" width="7.59023" height="7.59023" stroke="#141414" stroke-width="0.31626"/>
<rect x="32.9546" y="17.4126" width="5.61361" height="5.61361" stroke="#141414" stroke-width="0.0790649"/>
<rect x="32.2417" y="16.7016" width="7.03677" height="7.03677" stroke="#141414" stroke-width="0.0790649"/>
<rect x="33.269" y="17.728" width="4.98109" height="4.98109" fill="#141414" stroke="#141414" stroke-width="0.237195"/>
<rect x="33.8633" y="13.8926" width="0.237195" height="2.37195" fill="#141414"/>
<rect x="33.8643" y="24.1738" width="0.237195" height="2.37195" fill="#141414"/>
<rect x="35.0488" y="13.8926" width="0.237195" height="2.37195" fill="#141414"/>
<rect x="35.0488" y="24.1738" width="0.237195" height="2.37195" fill="#141414"/>
<rect x="36.2344" y="13.8926" width="0.237195" height="2.37195" fill="#141414"/>
<rect x="36.2344" y="24.1738" width="0.237195" height="2.37195" fill="#141414"/>
<rect x="37.4219" y="13.8926" width="0.237195" height="2.37195" fill="#141414"/>
<rect x="37.4209" y="24.1738" width="0.237195" height="2.37195" fill="#141414"/>
<rect x="39.7129" y="18.3203" width="2.37195" height="0.237195" fill="#141414"/>
<rect x="29.4355" y="18.3203" width="2.37195" height="0.237195" fill="#141414"/>
<rect x="39.7129" y="19.5078" width="2.37195" height="0.237195" fill="#141414"/>
<rect x="29.4355" y="19.5078" width="2.37195" height="0.237195" fill="#141414"/>
<rect x="39.7129" y="20.6934" width="2.37195" height="0.237195" fill="#141414"/>
<rect x="29.4355" y="20.6934" width="2.37195" height="0.237195" fill="#141414"/>
<rect x="39.7129" y="21.8789" width="2.37195" height="0.237195" fill="#141414"/>
<rect x="29.4355" y="21.8789" width="2.37195" height="0.237195" fill="#141414"/>
</g>
<defs>
<clipPath id="clip0_2315_172">
<rect width="50.963" height="50.963" fill="white" transform="translate(0.518555 0.519531)"/>
</clipPath>
</defs>
</svg>
