<svg width="52" height="39" viewBox="0 0 52 39" fill="none" xmlns="http://www.w3.org/2000/svg">
<mask id="path-1-inside-1_2315_343" fill="white">
<path fill-rule="evenodd" clip-rule="evenodd" d="M42.4562 1.17433L51.4815 9.43297V36.184C51.4815 37.7193 50.237 38.9638 48.7017 38.9638H3.29835C1.76311 38.9638 0.518555 37.7193 0.518555 36.184V9.43297L9.54382 1.17433C10.0563 0.705389 10.7258 0.445312 11.4204 0.445312H40.5797C41.2743 0.445312 41.9438 0.705389 42.4562 1.17433Z"/>
</mask>
<path d="M51.4815 9.43297H52.0741V9.17197L51.8816 8.99578L51.4815 9.43297ZM42.4562 1.17433L42.0562 1.61151V1.61151L42.4562 1.17433ZM0.518555 9.43297L0.118508 8.99578L-0.0740379 9.17197V9.43297H0.518555ZM9.54382 1.17433L9.14377 0.737145L9.14377 0.737146L9.54382 1.17433ZM51.8816 8.99578L42.8563 0.737146L42.0562 1.61151L51.0815 9.87015L51.8816 8.99578ZM50.8889 9.43297V36.184H52.0741V9.43297H50.8889ZM50.8889 36.184C50.8889 37.392 49.9097 38.3712 48.7017 38.3712V39.5564C50.5642 39.5564 52.0741 38.0466 52.0741 36.184H50.8889ZM48.7017 38.3712H3.29835V39.5564H48.7017V38.3712ZM3.29835 38.3712C2.09039 38.3712 1.11115 37.392 1.11115 36.184H-0.0740379C-0.0740379 38.0466 1.43583 39.5564 3.29835 39.5564V38.3712ZM1.11115 36.184V9.43297H-0.0740379V36.184H1.11115ZM9.14377 0.737146L0.118508 8.99578L0.918602 9.87015L9.94387 1.61151L9.14377 0.737146ZM11.4204 -0.14728C10.5777 -0.14728 9.76549 0.168239 9.14377 0.737145L9.94386 1.61151C10.3471 1.24254 10.8738 1.03791 11.4204 1.03791V-0.14728ZM40.5797 -0.14728H11.4204V1.03791H40.5797V-0.14728ZM42.8563 0.737147C42.2346 0.168238 41.4224 -0.14728 40.5797 -0.14728V1.03791C41.1262 1.03791 41.653 1.24254 42.0562 1.61151L42.8563 0.737147Z" fill="#141414" mask="url(#path-1-inside-1_2315_343)"/>
<path fill-rule="evenodd" clip-rule="evenodd" d="M4.07422 14.409C4.07422 13.8973 4.48907 13.4824 5.00082 13.4824H46.9995C47.5112 13.4824 47.926 13.8973 47.926 14.409V35.0743C47.926 35.5861 47.5112 36.0009 46.9995 36.0009H5.00082C4.48907 36.0009 4.07422 35.5861 4.07422 35.0743L4.07422 32.2164L5.93235 31.2702V18.4025L4.07422 17.4563V14.409ZM46.0679 18.4025L47.926 17.4563V32.2164L46.0679 31.2702V18.4025Z" fill="#141414"/>
<rect x="32.0739" y="24.8903" width="10.963" height="8.59259" rx="0.593131" stroke="#FAFAFA" stroke-width="0.296296"/>
<path d="M40.7312 26.6285L40.7312 26.6285L40.7323 26.6302L41.2268 27.3475C41.2843 27.4309 41.3151 27.5299 41.3151 27.6312V31.8517C41.3151 32.1278 41.0913 32.3516 40.8152 32.3516H34.2967C34.0206 32.3516 33.7968 32.1278 33.7968 31.8517V27.6281C33.7968 27.5284 33.8266 27.431 33.8824 27.3483L34.2945 26.7381L34.6318 26.2386C34.7248 26.1009 34.88 26.0184 35.0461 26.0184H40.0608C40.2292 26.0184 40.3863 26.1032 40.4787 26.244L40.7312 26.6285Z" stroke="#141414" stroke-width="0.18532"/>
<rect x="35.4814" y="29.4824" width="0.592593" height="1.77778" fill="#FAFAFA"/>
<rect x="37.2588" y="27.1113" width="0.592593" height="1.77778" fill="#FAFAFA"/>
<rect x="39.0371" y="29.4824" width="0.592593" height="1.77778" fill="#FAFAFA"/>
<path d="M32.0739 17.4739C32.0739 17.0119 32.4739 16.6516 32.9333 16.6996L37.111 17.1365V20.4949L32.9333 20.9317C32.4739 20.9798 32.0739 20.6195 32.0739 20.1575V17.4739Z" stroke="#FAFAFA" stroke-width="0.296296"/>
<path d="M43.6292 17.4739C43.6292 17.0119 43.2292 16.6516 42.7698 16.6996L38.5922 17.1365V20.4949L42.7698 20.9317C43.2292 20.9798 43.6292 20.6195 43.6292 20.1575V17.4739Z" stroke="#FAFAFA" stroke-width="0.296296"/>
<circle cx="34.2965" cy="18.816" r="1.03704" stroke="#FAFAFA" stroke-width="0.296296"/>
<rect x="39.6299" y="18.668" width="2.96296" height="0.296296" fill="#FAFAFA"/>
<circle cx="17.1112" cy="24.742" r="10.0741" fill="#FAFAFA"/>
<circle cx="7.926" cy="15.5569" r="0.888889" fill="#FAFAFA"/>
<circle cx="26.2961" cy="15.5569" r="0.888889" fill="#FAFAFA"/>
<circle cx="7.926" cy="33.926" r="0.888889" fill="#FAFAFA"/>
<circle cx="26.2961" cy="33.926" r="0.888889" fill="#FAFAFA"/>
<rect width="0.937803" height="9.75315" transform="matrix(0.698659 -0.715454 0.698659 0.715454 17.9385 26.4238)" fill="#141414"/>
<rect width="0.937803" height="9.75315" transform="matrix(-0.698659 0.715454 -0.698659 -0.715454 16.3271 23.0527)" fill="#141414"/>
<rect width="0.937803" height="9.75315" transform="matrix(-0.698659 -0.715454 -0.698659 0.715454 16.3271 26.4238)" fill="#141414"/>
<rect width="0.937803" height="9.75315" transform="matrix(0.698659 0.715454 0.698659 -0.715454 17.9385 23.0527)" fill="#141414"/>
<circle cx="17.111" cy="24.7419" r="4.14815" fill="#141414"/>
<circle cx="17.1111" cy="24.742" r="6.74047" stroke="#141414" stroke-width="0.741279"/>
<circle cx="15.6291" cy="23.26" r="0.888889" fill="#FAFAFA"/>
<circle cx="15.6291" cy="26.2229" r="0.888889" fill="#FAFAFA"/>
<circle cx="18.593" cy="23.26" r="0.888889" fill="#FAFAFA"/>
<circle cx="18.593" cy="26.2229" r="0.888889" fill="#FAFAFA"/>
</svg>
