<svg width="52" height="52" viewBox="0 0 52 52" fill="none" xmlns="http://www.w3.org/2000/svg">
<g opacity="0.9" clip-path="url(#clip0_2315_147)">
<rect x="10.7113" y="10.7113" width="30.5778" height="30.5778" stroke="#141414" stroke-width="1.27407"/>
<rect x="14.6915" y="14.6925" width="22.6148" height="22.6148" stroke="#141414" stroke-width="0.318518"/>
<rect x="11.8263" y="11.8272" width="28.3481" height="28.3481" stroke="#141414" stroke-width="0.318518"/>
<rect x="15.967" y="15.968" width="20.0667" height="20.0667" fill="#141414" stroke="#141414" stroke-width="0.955556"/>
<rect x="18.3564" y="0.519531" width="0.955555" height="9.55556" fill="#141414"/>
<rect x="18.3564" y="41.9277" width="0.955555" height="9.55556" fill="#141414"/>
<rect x="23.1348" y="0.519531" width="0.955555" height="9.55556" fill="#141414"/>
<rect x="23.1348" y="41.9277" width="0.955555" height="9.55556" fill="#141414"/>
<rect x="27.9121" y="0.519531" width="0.955555" height="9.55556" fill="#141414"/>
<rect x="27.9121" y="41.9277" width="0.955555" height="9.55556" fill="#141414"/>
<rect x="32.6895" y="0.519531" width="0.955555" height="9.55556" fill="#141414"/>
<rect x="32.6895" y="41.9277" width="0.955555" height="9.55556" fill="#141414"/>
<rect x="41.9258" y="18.3574" width="9.55556" height="0.955555" fill="#141414"/>
<rect x="0.518555" y="18.3574" width="9.55556" height="0.955555" fill="#141414"/>
<rect x="41.9258" y="23.1348" width="9.55556" height="0.955555" fill="#141414"/>
<rect x="0.518555" y="23.1348" width="9.55556" height="0.955555" fill="#141414"/>
<rect x="41.9258" y="27.9121" width="9.55556" height="0.955555" fill="#141414"/>
<rect x="0.518555" y="27.9121" width="9.55556" height="0.955555" fill="#141414"/>
<rect x="41.9258" y="32.6895" width="9.55556" height="0.955555" fill="#141414"/>
<rect x="0.518555" y="32.6895" width="9.55556" height="0.955555" fill="#141414"/>
</g>
<defs>
<clipPath id="clip0_2315_147">
<rect width="50.963" height="50.963" fill="white" transform="translate(0.518555 0.519531)"/>
</clipPath>
</defs>
</svg>
