<svg width="54" height="54" viewBox="0 0 54 54" fill="none" xmlns="http://www.w3.org/2000/svg">
<g opacity="0.9" clip-path="url(#clip0_2315_259)">
<path fill-rule="evenodd" clip-rule="evenodd" d="M12.7949 49.8789L26.5598 36.7955L28.7815 39.1329L15.0166 52.2163L12.7949 49.8789ZM13.8338 48.8916L14.8726 47.9042L16.3538 49.4625L15.3149 50.4499L13.8338 48.8916ZM16.431 46.4232L15.3921 47.4107L16.8733 48.9689L17.9121 47.9815L16.431 46.4232ZM16.9503 45.9297L17.9892 44.9423L19.4703 46.5006L18.4315 47.488L16.9503 45.9297ZM19.5475 43.4608L18.5086 44.4482L19.9898 46.0065L21.0286 45.0191L19.5475 43.4608ZM20.0669 42.9672L21.1057 41.9798L22.5869 43.5381L21.548 44.5255L20.0669 42.9672ZM22.6641 40.4989L21.6252 41.4864L23.1064 43.0447L24.1452 42.0572L22.6641 40.4989ZM23.1835 40.0052L24.2223 39.0178L25.7035 40.5761L24.6646 41.5635L23.1835 40.0052ZM25.7806 37.5364L24.7418 38.5238L26.2229 40.0821L27.2618 39.0947L25.7806 37.5364Z" fill="#141414"/>
<path fill-rule="evenodd" clip-rule="evenodd" d="M37.637 26.2657L38.1567 25.7717L39.6376 27.3298L40.6765 26.3424L39.1955 24.7843L41.5325 22.5631L43.7542 24.9005L29.9893 37.9839L27.7676 35.6465L30.365 33.1776L31.8459 34.7357L32.8848 33.7483L31.4039 32.1902L36.5981 27.2532L38.079 28.8112L39.1179 27.8238L37.637 26.2657ZM28.807 34.6592L29.8458 33.6718L31.327 35.23L30.2881 36.2175L28.807 34.6592ZM31.923 31.697L32.9619 30.7096L34.443 32.2679L33.4042 33.2553L31.923 31.697ZM34.5206 29.2284L33.4818 30.2158L34.9629 31.7741L36.0018 30.7867L34.5206 29.2284ZM35.0396 28.7345L36.0785 27.7471L37.5596 29.3054L36.5208 30.2928L35.0396 28.7345ZM40.7533 23.3037L39.7145 24.2912L41.1956 25.8494L42.2345 24.862L40.7533 23.3037Z" fill="#141414"/>
<path fill-rule="evenodd" clip-rule="evenodd" d="M48.6854 15.7664L48.1661 16.26L49.6471 17.8182L48.6083 18.8056L47.1272 17.2474L42.9717 21.1973L45.1612 23.5008L52.7629 16.2754L50.5734 13.9719L49.7243 14.779L51.2054 16.3373L50.1665 17.3247L48.6854 15.7664ZM44.0111 20.2099L45.0499 19.2225L46.5311 20.7808L45.4922 21.7682L44.0111 20.2099ZM46.6076 17.7415L45.5688 18.7289L47.0499 20.2872L48.0888 19.2998L46.6076 17.7415Z" fill="#141414"/>
<rect x="0.925781" y="39.2383" width="0.635621" height="2.22467" transform="rotate(-43.546 0.925781 39.2383)" fill="#141414"/>
<rect x="40.0859" y="2.01562" width="0.635621" height="2.22467" transform="rotate(-43.546 40.0859 2.01562)" fill="#141414"/>
<path fill-rule="evenodd" clip-rule="evenodd" d="M42.0792 3.19001L2.45801 40.8496L3.55278 42.0014L43.174 4.34181L42.0792 3.19001ZM43.6119 4.80252L3.99068 42.4621L5.3043 43.8442L5.30434 43.8441C5.81323 43.3604 6.61787 43.3809 7.10156 43.8897C7.58526 44.3986 7.56483 45.2033 7.05595 45.687L7.05591 45.687L8.58861 47.2995L8.58866 47.2995C9.09754 46.8158 9.90219 46.8362 10.3859 47.3451C10.8696 47.854 10.8492 48.6586 10.3403 49.1423L10.3402 49.1424L11.8729 50.7549L51.4941 13.0953L49.9613 11.4827C49.4524 11.9661 48.6479 11.9457 48.1643 11.4368C47.6806 10.928 47.701 10.1235 48.2097 9.63981L46.6772 8.02753L46.6772 8.02756C46.1683 8.51126 45.3636 8.49083 44.88 7.98195C44.3963 7.47306 44.4167 6.66841 44.9256 6.18472L44.9256 6.18468L43.6119 4.80252ZM13.0897 38.2429L11.0635 40.1687L14.303 43.577L16.3292 41.6511L13.0897 38.2429ZM10.1653 39.2237L9.22039 40.1219L10.1186 41.0669L13.3581 44.4751L14.2563 45.4201L15.2012 44.5219L17.2274 42.5961L18.1723 41.6979L17.2741 40.753L14.0346 37.3447L13.1364 36.3997L12.1915 37.2979L10.1653 39.2237ZM16.5921 34.9135L18.6182 32.9877L21.8578 36.3959L19.8316 38.3218L16.5921 34.9135ZM14.749 34.8667L15.6939 33.9685L17.7201 32.0427L18.665 31.1445L19.5632 32.0895L22.8027 35.4978L23.7009 36.4427L22.756 37.3409L20.7298 39.2667L19.7849 40.1649L18.8867 39.2199L15.6472 35.8117L14.749 34.8667ZM24.1468 27.7335L22.1207 29.6593L25.3602 33.0676L27.3863 31.1417L24.1468 27.7335ZM21.2225 28.7143L20.2775 29.6125L21.1757 30.5575L24.4152 33.9657L25.3134 34.9107L26.2584 34.0125L28.2845 32.0867L29.2295 31.1885L28.3313 30.2436L25.0918 26.8353L24.1936 25.8903L23.2486 26.7885L21.2225 28.7143ZM27.6492 24.4046L29.6754 22.4787L32.9149 25.887L30.8888 27.8128L27.6492 24.4046ZM25.8061 24.3578L26.751 23.4596L28.7772 21.5338L29.7221 20.6356L30.6203 21.5806L33.8598 24.9888L34.758 25.9338L33.8131 26.832L31.7869 28.7578L30.842 29.656L29.9438 28.711L26.7043 25.3027L25.8061 24.3578ZM35.2038 17.2241L33.1777 19.1499L36.4172 22.5582L38.4434 20.6324L35.2038 17.2241ZM32.2795 18.205L31.3346 19.1031L32.2327 20.0481L35.4723 23.4564L36.3704 24.4013L37.3154 23.5031L39.3415 21.5773L40.2865 20.6791L39.3883 19.7342L36.1488 16.3259L35.2506 15.381L34.3056 16.2791L32.2795 18.205ZM38.7062 13.8944L40.7324 11.9686L43.9719 15.3769L41.9458 17.3027L38.7062 13.8944ZM36.8631 13.8476L37.8081 12.9495L39.8342 11.0236L40.7792 10.1255L41.6773 11.0704L44.9169 14.4787L45.815 15.4236L44.8701 16.3218L42.8439 18.2476L41.899 19.1458L41.0008 18.2009L37.7613 14.7926L36.8631 13.8476Z" fill="#141414"/>
</g>
<defs>
<clipPath id="clip0_2315_259">
<rect width="52.1481" height="52.1481" fill="white" transform="translate(0.925781 0.925781)"/>
</clipPath>
</defs>
</svg>
