<svg width="64" height="64" viewBox="0 0 64 64" fill="none" xmlns="http://www.w3.org/2000/svg">
<path fill-rule="evenodd" clip-rule="evenodd" d="M48.3458 7.48249H16.247C15.006 7.48249 14.0001 8.48847 14.0001 9.72941V39.2599H13.0371V9.72941C13.0371 7.95664 14.4742 6.51953 16.247 6.51953H48.3458C50.1185 6.51953 51.5556 7.95664 51.5556 9.72941V16.1491H50.5927V9.72941C50.5927 8.48847 49.5867 7.48249 48.3458 7.48249ZM50.5927 25.1368V54.6677C50.5927 55.9086 49.5867 56.9146 48.3457 56.9146H42.889C42.1799 56.9146 41.605 56.3397 41.605 55.6306C41.605 53.8579 40.1679 52.4208 38.3951 52.4208H32.2964H26.1976C24.4248 52.4208 22.9877 53.8579 22.9877 55.6306C22.9877 56.3397 22.4129 56.9146 21.7038 56.9146H16.247C15.0061 56.9146 14.0001 55.9086 14.0001 54.6677V48.2476H13.0371V54.6677C13.0371 56.4404 14.4742 57.8776 16.247 57.8776H21.7038C22.9447 57.8776 23.9507 56.8716 23.9507 55.6306C23.9507 54.3897 24.9567 53.3837 26.1976 53.3837H32.2964H38.3951C39.6361 53.3837 40.642 54.3897 40.642 55.6306C40.642 56.8716 41.648 57.8776 42.889 57.8776H48.3457C50.1185 57.8776 51.5556 56.4404 51.5556 54.6677V25.1368H50.5927Z" fill="#141414"/>
<circle cx="18.815" cy="12.2984" r="2.40741" stroke="#141414" stroke-width="0.320988"/>
<circle cx="45.7778" cy="52.0991" r="1.44444" fill="#141414" stroke="#141414" stroke-width="0.320988"/>
<circle cx="18.8149" cy="52.0991" r="1.44444" fill="#141414" stroke="#141414" stroke-width="0.320988"/>
<circle cx="18.815" cy="52.0992" r="2.40741" stroke="#141414" stroke-width="0.320988"/>
<circle cx="45.7769" cy="12.2984" r="2.40741" stroke="#141414" stroke-width="0.320988"/>
<circle cx="45.7769" cy="52.0992" r="2.40741" stroke="#141414" stroke-width="0.320988"/>
<path d="M20.0363 31.1956C20.0363 30.4282 20.3448 29.8138 20.9617 29.3524C21.5786 28.886 22.4036 28.6528 23.4368 28.6528C24.4449 28.6528 25.2549 28.8885 25.8668 29.36C26.4786 29.8314 26.7921 30.4583 26.8071 31.2407H24.7834C24.7583 30.9147 24.6229 30.6589 24.3772 30.4734C24.1364 30.2878 23.8129 30.195 23.4067 30.195C23.0255 30.195 22.7196 30.2753 22.4889 30.4358C22.2632 30.5912 22.1503 30.7994 22.1503 31.0602C22.1503 31.4514 22.5014 31.7297 23.2036 31.8953L24.7458 32.2263C25.5533 32.4068 26.1326 32.6701 26.4837 33.0162C26.8397 33.3573 27.0178 33.8287 27.0178 34.4306C27.0178 35.223 26.6868 35.86 26.0247 36.3414C25.3627 36.8229 24.4975 37.0637 23.4293 37.0637C22.366 37.0637 21.5159 36.8279 20.8789 36.3565C20.2419 35.885 19.8934 35.2506 19.8332 34.4531H21.9773C22.0325 34.7942 22.1879 35.0575 22.4437 35.2431C22.7045 35.4286 23.0531 35.5214 23.4894 35.5214C23.9057 35.5214 24.2317 35.4462 24.4674 35.2957C24.7082 35.1402 24.8286 34.9296 24.8286 34.6638C24.8286 34.4581 24.7533 34.2951 24.6029 34.1748C24.4524 34.0494 24.1966 33.9441 23.8355 33.8588L22.3459 33.5278C20.8062 33.1767 20.0363 32.3993 20.0363 31.1956ZM27.9808 31.1956C27.9808 30.4282 28.2892 29.8138 28.9061 29.3524C29.523 28.886 30.348 28.6528 31.3812 28.6528C32.3893 28.6528 33.1993 28.8885 33.8112 29.36C34.4231 29.8314 34.7365 30.4583 34.7516 31.2407H32.7279C32.7028 30.9147 32.5674 30.6589 32.3216 30.4734C32.0809 30.2878 31.7574 30.195 31.3511 30.195C30.97 30.195 30.664 30.2753 30.4333 30.4358C30.2076 30.5912 30.0948 30.7994 30.0948 31.0602C30.0948 31.4514 30.4458 31.7297 31.148 31.8953L32.6903 32.2263C33.4977 32.4068 34.077 32.6701 34.4281 33.0162C34.7842 33.3573 34.9622 33.8287 34.9622 34.4306C34.9622 35.223 34.6312 35.86 33.9692 36.3414C33.3071 36.8229 32.442 37.0637 31.3737 37.0637C30.3104 37.0637 29.4603 36.8279 28.8234 36.3565C28.1864 35.885 27.8378 35.2506 27.7776 34.4531H29.9217C29.9769 34.7942 30.1324 35.0575 30.3882 35.2431C30.649 35.4286 30.9975 35.5214 31.4339 35.5214C31.8502 35.5214 32.1762 35.4462 32.4119 35.2957C32.6526 35.1402 32.773 34.9296 32.773 34.6638C32.773 34.4581 32.6978 34.2951 32.5473 34.1748C32.3968 34.0494 32.1411 33.9441 31.7799 33.8588L30.2904 33.5278C28.7506 33.1767 27.9808 32.3993 27.9808 31.1956ZM39.0548 37.0185C38.0467 37.0185 37.2468 36.6449 36.655 35.8976C36.0631 35.1503 35.7672 34.1321 35.7672 32.8432C35.7672 31.5642 36.0631 30.5536 36.655 29.8113C37.2518 29.0691 38.0568 28.6979 39.0699 28.6979C39.6416 28.6979 40.1432 28.8358 40.5745 29.1117C41.0109 29.3875 41.3293 29.7537 41.53 30.2101H41.5751V26.0347H43.7718V36.8906H41.6052V35.5064H41.5676C41.3669 35.9628 41.0435 36.3289 40.5971 36.6047C40.1507 36.8806 39.6366 37.0185 39.0548 37.0185ZM39.7996 30.4583C39.2479 30.4583 38.8116 30.674 38.4906 31.1053C38.1746 31.5367 38.0166 32.1209 38.0166 32.8582C38.0166 33.6005 38.1746 34.1848 38.4906 34.6111C38.8116 35.0374 39.2479 35.2506 39.7996 35.2506C40.3463 35.2506 40.7801 35.0374 41.1011 34.6111C41.4271 34.1798 41.5901 33.5955 41.5901 32.8582C41.5901 32.126 41.4271 31.5442 41.1011 31.1128C40.7801 30.6765 40.3463 30.4583 39.7996 30.4583Z" fill="#141414"/>
</svg>
