<svg width="52" height="52" viewBox="0 0 52 52" fill="none" xmlns="http://www.w3.org/2000/svg">
<g opacity="0.9" clip-path="url(#clip0_2315_104)">
<path fill-rule="evenodd" clip-rule="evenodd" d="M25.6552 41.2422H24.9366V43.3968H23.5001V41.2422H22.7838V43.3968H21.3474V41.2422H20.6284V43.3968H19.1919V41.2422H18.4736V43.3968H17.0372V41.2422H16.319V43.3968H14.8826V41.2422H14.1635V43.3968H12.727V41.2422H12.0107V43.3968H10.5742V41.2422H9.13672V44.4742H28.1698V41.2422H27.0917V43.3968H25.6552V41.2422Z" fill="#141414"/>
<path fill-rule="evenodd" clip-rule="evenodd" d="M45.4072 41.2422H44.6885V43.3968H43.2521V41.2422H42.5358V43.3968H41.0993V41.2422H40.3804V43.3968H38.9439V41.2422H38.2256V43.3968H36.7891V41.2422H36.071V43.3968H34.6345V41.2422H33.9154V43.3968H32.479V41.2422H31.7626V43.3968H30.3262V41.2422H28.8887V44.4742H47.9217V41.2422H46.8436V43.3968H45.4072V41.2422Z" fill="#141414"/>
<path fill-rule="evenodd" clip-rule="evenodd" d="M1.95605 8.56393C1.95605 8.16726 2.27762 7.8457 2.67428 7.8457H4.46985C4.86652 7.8457 5.18808 8.16726 5.18808 8.56393V40.8842C5.18808 41.2809 4.86652 41.6024 4.46985 41.6024H2.67428C2.27762 41.6024 1.95605 41.2809 1.95605 40.8842V39.4475C1.95605 39.0508 1.63397 38.7292 1.2373 38.7292C0.840638 38.7292 0.518555 38.4077 0.518555 38.011V30.4696C0.518555 30.073 0.840638 29.7514 1.2373 29.7514C1.63397 29.7514 1.95605 29.4298 1.95605 29.0332V24.3651C1.95605 23.9684 1.63397 23.6468 1.2373 23.6468C0.840638 23.6468 0.518555 23.3253 0.518555 22.9286V15.3872C0.518555 14.9906 0.840638 14.669 1.2373 14.669C1.63397 14.669 1.95605 14.3474 1.95605 13.9508V8.56393Z" fill="#141414"/>
<path fill-rule="evenodd" clip-rule="evenodd" d="M8.05957 16.4648H47.9212C49.9046 16.4648 51.5124 18.0727 51.5124 20.056V37.6526C51.5124 39.6359 49.9046 41.2437 47.9212 41.2437H8.05957V16.4648ZM48.2804 29.2134C48.2804 33.8742 44.502 37.6525 39.8412 37.6525C35.1804 37.6525 31.402 33.8742 31.402 29.2134C31.402 24.5525 35.1804 20.7742 39.8412 20.7742C44.502 20.7742 48.2804 24.5525 48.2804 29.2134ZM17.2294 31.0453C17.7063 30.5739 17.9448 29.9244 17.9448 29.0968V28.4108H15.3861V29.3367H16.7075L16.7033 29.4334C16.6893 29.8094 16.5504 30.1138 16.2867 30.3467C16.0258 30.5795 15.6877 30.696 15.2725 30.696C14.7647 30.696 14.3621 30.5066 14.0647 30.1278C13.7701 29.7491 13.6228 29.2314 13.6228 28.5749C13.6228 27.9297 13.7645 27.4261 14.0478 27.0641C14.3312 26.7022 14.724 26.5213 15.2262 26.5213C15.5685 26.5213 15.8617 26.611 16.1057 26.7906C16.3526 26.9701 16.5224 27.2184 16.6149 27.5355H17.8901C17.8003 26.9211 17.5099 26.4231 17.019 26.0415C16.528 25.6599 15.929 25.4692 15.222 25.4692C14.327 25.4692 13.62 25.7469 13.101 26.3024C12.5847 26.8579 12.3266 27.621 12.3266 28.5918C12.3266 29.5765 12.5861 30.3495 13.1052 30.9106C13.627 31.4717 14.3424 31.7523 15.2514 31.7523C16.0959 31.7523 16.7552 31.5166 17.2294 31.0453ZM18.7865 31.647H20.0574V29.2567H22.5277V28.2509H20.0574V26.6223H22.7634V25.5744H18.7865V31.647ZM25.1201 28.6044L23.1926 31.647H24.5646L25.9028 29.5218H25.9365L27.2663 31.647H28.714L26.7529 28.6254V28.596L28.7393 25.5744H27.321L26.0207 27.7627H25.987L24.6992 25.5744H23.2053L25.1201 28.5707V28.6044Z" fill="#141414"/>
<circle cx="39.8422" cy="29.2124" r="3.41158" fill="#141414"/>
<path d="M41.9958 23.6371L41.4571 26.6896L38.9433 26.1509C38.9433 25.5763 37.9857 24.2356 37.5068 23.6371C38.5124 22.4879 41.4571 22.9189 41.9958 23.6371Z" fill="#141414"/>
<path d="M37.8656 34.9586L38.4042 31.9061L40.918 32.4448C40.918 33.0194 41.8757 34.3601 42.3545 34.9586C41.349 36.1078 38.4042 35.6768 37.8656 34.9586Z" fill="#141414"/>
<path d="M36.056 24.6781L38.4302 26.6708L36.7068 28.5785C36.2092 28.2912 34.5693 28.4502 33.8116 28.5656C33.3191 27.1202 35.1647 24.7855 36.056 24.6781Z" fill="#141414"/>
<path d="M45.9866 28.2481L43.0737 29.3078L42.2833 26.8615C42.7809 26.5742 43.4632 25.0745 43.7421 24.3605C45.2401 24.6568 46.3392 27.4225 45.9866 28.2481Z" fill="#141414"/>
<path d="M33.8122 30.1992L36.7251 29.1395L37.5155 31.5858C37.0179 31.8731 36.3356 33.3728 36.0567 34.0867C34.5587 33.7905 33.4596 31.0248 33.8122 30.1992Z" fill="#141414"/>
<path d="M43.7428 34.0465L41.3686 32.0538L43.092 30.1461C43.5896 30.4334 45.2295 30.2744 45.9872 30.159C46.4797 31.6044 44.6341 33.9391 43.7428 34.0465Z" fill="#141414"/>
</g>
<defs>
<clipPath id="clip0_2315_104">
<rect width="50.963" height="50.963" fill="white" transform="translate(0.518555 0.519531)"/>
</clipPath>
</defs>
</svg>
